HIERARCHY
ROOT Hips
{
	OFFSET 51.751801 -6.930384 86.764999
	CHANNELS 6 Xposition Yposition Zposition Xrotation Yrotation Zrotation
	JOINT spine
	{
		OFFSET 0.000000 -0.393701 6.846367
		CHANNELS 3 Xrotation Yrotation Zrotation
		JOINT spine1
		{
			OFFSET 0.000000 -0.000001 9.496208
			CHANNELS 3 Xrotation Yrotation Zrotation
			JOINT spine2
			{
				OFFSET 0.000000 -0.000001 9.099091
				CHANNELS 3 Xrotation Yrotation Zrotation
				JOINT Neck
				{
					OFFSET 0.000000 -1.113784 23.361206
					CHANNELS 3 Xrotation Yrotation Zrotation
					JOINT Head
					{
						OFFSET 0.000000 -0.000001 7.058014
						CHANNELS 3 Xrotation Yrotation Zrotation
						End Site
						{
							OFFSET 0.000000 5.634187 17.084396
						}
					}
				}
				JOINT RightShoulder
				{
					OFFSET -3.831360 0.533489 9.826309
					CHANNELS 3 Xrotation Yrotation Zrotation
					JOINT RightArm
					{
						OFFSET 0.000000 -0.000002 12.888107
						CHANNELS 3 Xrotation Yrotation Zrotation
						JOINT RightArmRoll
						{
							OFFSET 0.000000 -0.000001 6.506165
							CHANNELS 3 Xrotation Yrotation Zrotation
							JOINT RightForeArm
							{
								OFFSET 0.000000 -0.000003 18.950104
								CHANNELS 3 Xrotation Yrotation Zrotation
								JOINT RightForeArmRoll
								{
									OFFSET 0.000000 -0.000001 7.300919
									CHANNELS 3 Xrotation Yrotation Zrotation
									JOINT RightHand
									{
										OFFSET 0.000000 -0.000002 14.651398
										CHANNELS 3 Xrotation Yrotation Zrotation
										End Site
										{
											OFFSET 0.000000 0.000000 0.100006
										}
									}
								}
							}
						}
					}
				}
				JOINT LeftShoulder
				{
					OFFSET 3.831360 0.533489 9.826309
					CHANNELS 3 Xrotation Yrotation Zrotation
					JOINT LeftArm
					{
						OFFSET 0.000000 -0.000002 12.888107
						CHANNELS 3 Xrotation Yrotation Zrotation
						JOINT LeftArmRoll
						{
							OFFSET 0.000000 -0.000001 6.506165
							CHANNELS 3 Xrotation Yrotation Zrotation
							JOINT LeftForeArm
							{
								OFFSET 0.000000 -0.000003 18.950104
								CHANNELS 3 Xrotation Yrotation Zrotation
								JOINT LeftForeArmRoll
								{
									OFFSET 0.000000 -0.000001 7.300919
									CHANNELS 3 Xrotation Yrotation Zrotation
									JOINT LeftHand
									{
										OFFSET 0.000000 -0.000002 14.651398
										CHANNELS 3 Xrotation Yrotation Zrotation
										End Site
										{
											OFFSET 0.000000 0.000000 0.100006
										}
									}
								}
							}
						}
					}
				}
			}
		}
	}
	JOINT RightUpLeg
	{
		OFFSET -6.068371 0.933477 -1.112778
		CHANNELS 3 Xrotation Yrotation Zrotation
		JOINT RightUpLegRoll
		{
			OFFSET 0.000000 -0.000003 17.179596
			CHANNELS 3 Xrotation Yrotation Zrotation
			JOINT RightLeg
			{
				OFFSET 0.000000 0.000003 -21.274300
				CHANNELS 3 Xrotation Yrotation Zrotation
				JOINT RightLegRoll
				{
					OFFSET 0.000000 -0.000003 21.343903
					CHANNELS 3 Xrotation Yrotation Zrotation
					JOINT RightFoot
					{
						OFFSET 0.000000 -0.000003 17.765198
						CHANNELS 3 Xrotation Yrotation Zrotation
						JOINT RightToeBase
						{
							OFFSET 0.000000 -0.000002 14.850807
							CHANNELS 3 Xrotation Yrotation Zrotation
							End Site
							{
								OFFSET 0.006294 0.829004 7.192139
							}
						}
					}
				}
			}
		}
	}
	JOINT LeftUpLeg
	{
		OFFSET 6.068371 0.933477 -1.112778
		CHANNELS 3 Xrotation Yrotation Zrotation
		JOINT LeftUpLegRoll
		{
			OFFSET 0.000000 -0.000003 17.179703
			CHANNELS 3 Xrotation Yrotation Zrotation
			JOINT LeftLeg
			{
				OFFSET 0.000000 -0.000003 21.274200
				CHANNELS 3 Xrotation Yrotation Zrotation
				JOINT LeftLegRoll
				{
					OFFSET 0.000000 -0.000004 21.541199
					CHANNELS 3 Xrotation Yrotation Zrotation
					JOINT LeftFoot
					{
						OFFSET 0.000000 -0.000003 17.567902
						CHANNELS 3 Xrotation Yrotation Zrotation
						JOINT LeftToeBase
						{
							OFFSET 0.000000 -0.000002 14.850800
							CHANNELS 3 Xrotation Yrotation Zrotation
							End Site
							{
								OFFSET -0.028210 0.829004 7.192139
							}
						}
					}
				}
			}
		}
	}
}
MOTION
Frames: 6
Frame Time: 0.041667
52.350403 -4.623775 86.601593 -1.835453 -0.276939 -2.786905 -1.375800 -1.361498 0.914327 1.273273 -2.747043 1.809903 2.918793 -2.724956 1.842733 8.336441 21.374336 -3.396181 10.694087 -14.390377 -3.316243 -9.899337 -49.017040 -11.034564 -50.934145 -108.669355 -28.341310 -0.000005 0.000000 -0.000004 4.939293 -14.201723 0.336695 0.000002 0.000006 -2.999987 -5.000243 -7.998754 0.000178 -26.621934 72.044808 30.802343 -93.250933 109.503847 60.836386 0.000001 -0.000020 0.000003 4.062755 11.789637 -1.087386 0.000003 -0.000008 3.000013 -5.000209 7.998716 -0.000161 -14.535068 -178.443446 -1.991773 -179.999991 0.000005 -1.141005 155.640231 -3.228284 -1.293586 0.000000 0.000006 0.583158 72.580336 7.106272 1.251226 25.456957 -7.355615 0.000011 -11.300557 179.335141 1.114712 -0.000002 0.000011 -1.103830 -25.210037 1.398782 1.100224 -0.000002 0.000001 -0.725805 76.502408 -6.538286 -2.641247 25.456957 7.355614 -0.000001 
52.350906 -4.626426 86.611099 -1.836829 -0.288210 -2.773083 -1.377279 -1.359568 0.912352 1.270224 -2.742258 1.805950 2.915739 -2.720229 1.838716 8.329828 21.372874 -3.397803 10.690116 -14.395875 -3.318420 -9.897360 -49.015309 -11.031958 -50.856441 -108.731052 -28.419029 -0.000003 0.000003 -0.000005 5.086829 -14.258535 0.357618 0.000001 0.000006 -2.999990 -5.000238 -7.998753 0.000177 -26.616873 72.043784 30.796814 -93.199010 109.509523 60.828039 0.000002 -0.000023 0.000003 4.104734 11.817170 -1.089509 0.000004 -0.000007 3.000016 -5.000214 7.998713 -0.000157 -14.533703 -178.424075 -1.983993 -179.999991 0.000005 -1.141005 155.635655 -3.227246 -1.294438 0.000001 0.000006 0.583159 72.584653 7.104030 1.257108 25.456955 -7.355615 0.000010 -11.269297 179.359579 1.133027 -0.000004 0.000011 -1.104879 -25.173844 1.392064 1.100137 -0.000002 0.000001 -0.726370 76.497121 -6.539346 -2.639281 25.456962 7.355613 -0.000000 
52.352909 -4.617415 86.606697 -1.838227 -0.299852 -2.758714 -1.378749 -1.357588 0.910239 1.267196 -2.737292 1.801726 2.912703 -2.715343 1.834434 8.322805 21.371143 -3.399235 10.686130 -14.400981 -3.320524 -9.895678 -49.013745 -11.029736 -50.781586 -108.792148 -28.499092 -0.000003 0.000002 -0.000003 5.234694 -14.315427 0.378829 0.000002 0.000006 -2.999991 -5.000239 -7.998754 0.000175 -26.611356 72.042513 30.790786 -93.146855 109.515110 60.819433 0.000001 -0.000024 0.000001 4.147022 11.844693 -1.091669 0.000006 -0.000010 3.000009 -5.000212 7.998713 -0.000155 -14.532249 -178.403735 -1.976029 -179.999991 0.000005 -1.141005 155.631065 -3.226220 -1.295283 0.000000 0.000006 0.583159 72.588942 7.101731 1.263283 25.456957 -7.355615 0.000010 -11.236740 179.385001 1.152069 -0.000003 0.000011 -1.105949 -25.136051 1.385026 1.100055 -0.000002 0.000002 -0.726958 76.491610 -6.540400 -2.637424 25.456967 7.355614 -0.000000 
52.355309 -4.620634 86.602196 -1.839608 -0.311755 -2.743973 -1.380217 -1.355557 0.908032 1.264167 -2.732217 1.797299 2.909677 -2.710337 1.829946 8.315457 21.369224 -3.400522 10.682230 -14.405786 -3.322571 -9.894177 -49.012174 -11.027731 -50.706884 -108.853121 -28.578784 -0.000002 0.000003 -0.000003 5.382835 -14.372395 0.400343 0.000002 0.000005 -2.999990 -5.000241 -7.998754 0.000176 -26.605629 72.041161 30.784551 -93.094481 109.520506 60.810704 0.000002 -0.000023 0.000000 4.189555 11.872202 -1.093875 0.000005 -0.000008 3.000010 -5.000208 7.998713 -0.000159 -14.530792 -178.383381 -1.967769 -179.999991 0.000005 -1.141005 155.626393 -3.225193 -1.295135 0.000001 0.000006 0.583159 72.593306 7.099366 1.269541 25.456957 -7.355615 0.000010 -11.203286 179.410450 1.171776 -0.000004 0.000011 -1.107050 -25.097156 1.377768 1.099982 -0.000002 0.000001 -0.727567 76.485879 -6.541466 -2.635585 25.456959 7.355614 -0.000000 
52.357807 -4.619073 86.601990 -1.840990 -0.323808 -2.729018 -1.381677 -1.353517 0.905768 1.261148 -2.727071 1.792772 2.906652 -2.705259 1.825355 8.307955 21.367210 -3.401740 10.678208 -14.410304 -3.324649 -9.892769 -49.010589 -11.025857 -50.632479 -108.914060 -28.658562 -0.000005 0.000001 -0.000003 5.531134 -14.429340 0.422141 0.000003 0.000006 -2.999990 -5.000241 -7.998755 0.000176 -26.599752 72.039720 30.778137 -93.042141 109.525826 60.802002 0.000000 -0.000022 0.000001 4.232215 11.899795 -1.096130 0.000004 -0.000007 3.000011 -5.000216 7.998712 -0.000157 -14.529342 -178.363055 -1.959333 -179.999991 0.000005 -1.141005 155.621707 -3.224164 -1.295985 -0.000000 0.000005 0.583159 72.597657 7.096973 1.275899 25.456957 -7.355616 0.000010 -11.169330 179.436870 1.191678 -0.000003 0.000011 -1.108149 -25.057662 1.370385 1.099921 -0.000003 0.000001 -0.728184 76.479971 -6.542618 -2.633663 25.456960 7.355614 -0.000000 
52.361206 -4.624178 86.605591 -1.842368 -0.335898 -2.714015 -1.383145 -1.351466 0.903490 1.258119 -2.721905 1.788215 2.903636 -2.700163 1.820735 8.300398 21.365206 -3.402939 10.674292 -14.414814 -3.326696 -9.891424 -49.009111 -11.024051 -50.558624 -108.975019 -28.738861 -0.000004 0.000003 -0.000003 5.679564 -14.486266 0.444259 0.000002 0.000005 -2.999990 -5.000238 -7.998754 0.000177 -26.593686 72.038203 30.771539 -92.989884 109.531058 60.793376 0.000001 -0.000023 0.000003 4.274922 11.927381 -1.098437 0.000006 -0.000007 3.000012 -5.000206 7.998715 -0.000157 -14.527899 -178.341731 -1.951120 -179.999991 0.000005 -1.142002 155.617036 -3.223136 -1.296834 -0.000000 0.000006 0.583159 72.602015 7.094577 1.282253 25.456955 -7.355615 0.000011 -11.135180 179.463302 1.211697 -0.000003 0.000011 -1.109250 -25.017964 1.362971 1.099869 -0.000002 0.000002 -0.728804 76.474131 -6.543678 -2.631929 25.456962 7.355614 -0.000001 
